<mxfile host="Electron" modified="2023-11-16T14:08:47.116Z" agent="Mozilla/5.0 (Windows NT 10.0; Win64; x64) AppleWebKit/537.36 (KHTML, like Gecko) draw.io/22.1.2 Chrome/114.0.5735.289 Electron/25.9.4 Safari/537.36" etag="mmWeofYMR4EejOcUUIdv" version="22.1.2" type="device">
  <diagram name="Page-1" id="RnCmUqB6xI6RZPLPdSZT">
    <mxGraphModel dx="3585" dy="2090" grid="1" gridSize="10" guides="1" tooltips="1" connect="1" arrows="1" fold="1" page="1" pageScale="1" pageWidth="700" pageHeight="1000" math="0" shadow="0">
      <root>
        <mxCell id="0" />
        <mxCell id="1" parent="0" />
        <mxCell id="YatuWuwLbzynWvedY3nm-30" value="" style="group;" vertex="1" connectable="0" parent="1">
          <mxGeometry x="220" y="415" width="550" height="550" as="geometry" />
        </mxCell>
        <mxCell id="YatuWuwLbzynWvedY3nm-1" value="" style="ellipse;whiteSpace=wrap;html=1;aspect=fixed;fillColor=#A9C4EB;" vertex="1" parent="YatuWuwLbzynWvedY3nm-30">
          <mxGeometry width="550" height="550" as="geometry" />
        </mxCell>
        <mxCell id="YatuWuwLbzynWvedY3nm-3" value="&lt;font style=&quot;font-size: 16px;&quot;&gt;&lt;b&gt;VIEWS&lt;/b&gt;&lt;/font&gt;" style="rounded=1;whiteSpace=wrap;html=1;fillColor=default;" vertex="1" parent="YatuWuwLbzynWvedY3nm-30">
          <mxGeometry x="90" y="80" width="140" height="100" as="geometry" />
        </mxCell>
        <mxCell id="YatuWuwLbzynWvedY3nm-5" value="&lt;font style=&quot;font-size: 16px;&quot;&gt;&lt;b&gt;SERVICE&lt;/b&gt;&lt;/font&gt;" style="rounded=1;whiteSpace=wrap;html=1;fillColor=default;" vertex="1" parent="YatuWuwLbzynWvedY3nm-30">
          <mxGeometry x="212.5" y="340" width="125" height="70" as="geometry" />
        </mxCell>
        <mxCell id="YatuWuwLbzynWvedY3nm-14" value="&lt;font style=&quot;font-size: 16px;&quot;&gt;&lt;b&gt;CONTROLLERS&lt;/b&gt;&lt;/font&gt;" style="rounded=1;whiteSpace=wrap;html=1;fillColor=default;" vertex="1" parent="YatuWuwLbzynWvedY3nm-30">
          <mxGeometry x="325" y="130" width="145" height="70" as="geometry" />
        </mxCell>
        <mxCell id="YatuWuwLbzynWvedY3nm-6" value="" style="endArrow=classic;startArrow=classic;html=1;rounded=0;entryX=1;entryY=0.25;entryDx=0;entryDy=0;exitX=0;exitY=0;exitDx=0;exitDy=0;" edge="1" parent="YatuWuwLbzynWvedY3nm-30" source="YatuWuwLbzynWvedY3nm-14" target="YatuWuwLbzynWvedY3nm-3">
          <mxGeometry width="50" height="50" relative="1" as="geometry">
            <mxPoint x="680" y="630" as="sourcePoint" />
            <mxPoint x="730" y="580" as="targetPoint" />
          </mxGeometry>
        </mxCell>
        <mxCell id="YatuWuwLbzynWvedY3nm-9" value="" style="endArrow=classic;startArrow=classic;html=1;rounded=0;exitX=0.5;exitY=0;exitDx=0;exitDy=0;entryX=0.5;entryY=1;entryDx=0;entryDy=0;" edge="1" parent="YatuWuwLbzynWvedY3nm-30" source="YatuWuwLbzynWvedY3nm-5" target="YatuWuwLbzynWvedY3nm-14">
          <mxGeometry width="50" height="50" relative="1" as="geometry">
            <mxPoint x="1090" y="640" as="sourcePoint" />
            <mxPoint x="1140" y="590" as="targetPoint" />
          </mxGeometry>
        </mxCell>
        <mxCell id="YatuWuwLbzynWvedY3nm-2" value="&lt;font style=&quot;font-size: 24px;&quot;&gt;FRONTEND&amp;nbsp;&lt;br&gt;APP&lt;/font&gt;" style="text;html=1;strokeColor=none;fillColor=none;align=center;verticalAlign=middle;whiteSpace=wrap;rounded=0;" vertex="1" parent="1">
          <mxGeometry x="412.5" y="335" width="165" height="70" as="geometry" />
        </mxCell>
        <mxCell id="YatuWuwLbzynWvedY3nm-7" value="" style="ellipse;whiteSpace=wrap;html=1;aspect=fixed;fillColor=#FFB570;" vertex="1" parent="1">
          <mxGeometry x="870" y="115" width="400" height="400" as="geometry" />
        </mxCell>
        <mxCell id="YatuWuwLbzynWvedY3nm-8" value="" style="ellipse;whiteSpace=wrap;html=1;aspect=fixed;fillColor=#99FF99;" vertex="1" parent="1">
          <mxGeometry x="1515" y="255" width="490" height="490" as="geometry" />
        </mxCell>
        <mxCell id="YatuWuwLbzynWvedY3nm-10" value="&lt;font style=&quot;font-size: 16px;&quot;&gt;&lt;b&gt;SERVICE&lt;/b&gt;&lt;/font&gt;" style="rounded=1;whiteSpace=wrap;html=1;fillColor=default;" vertex="1" parent="1">
          <mxGeometry x="1090" y="215" width="125" height="70" as="geometry" />
        </mxCell>
        <mxCell id="YatuWuwLbzynWvedY3nm-11" value="&lt;font style=&quot;font-size: 24px;&quot;&gt;VALIDATOR&lt;br&gt;APP&lt;/font&gt;" style="text;html=1;strokeColor=none;fillColor=none;align=center;verticalAlign=middle;whiteSpace=wrap;rounded=0;" vertex="1" parent="1">
          <mxGeometry x="985" y="35" width="170" height="70" as="geometry" />
        </mxCell>
        <mxCell id="YatuWuwLbzynWvedY3nm-12" value="&lt;font style=&quot;font-size: 16px;&quot;&gt;&lt;b&gt;CONTROLLERS&lt;/b&gt;&lt;/font&gt;" style="rounded=1;whiteSpace=wrap;html=1;fillColor=default;" vertex="1" parent="1">
          <mxGeometry x="1590" y="405" width="140" height="70" as="geometry" />
        </mxCell>
        <mxCell id="YatuWuwLbzynWvedY3nm-13" value="&lt;font style=&quot;font-size: 16px;&quot;&gt;&lt;b&gt;SERVICE&lt;/b&gt;&lt;/font&gt;" style="rounded=1;whiteSpace=wrap;html=1;fillColor=default;" vertex="1" parent="1">
          <mxGeometry x="1845" y="425" width="100" height="70" as="geometry" />
        </mxCell>
        <mxCell id="YatuWuwLbzynWvedY3nm-16" value="&lt;font style=&quot;font-size: 16px;&quot;&gt;&lt;b&gt;CONTROLLERS&lt;/b&gt;&lt;/font&gt;" style="rounded=1;whiteSpace=wrap;html=1;fillColor=default;" vertex="1" parent="1">
          <mxGeometry x="920" y="335" width="150" height="65" as="geometry" />
        </mxCell>
        <mxCell id="YatuWuwLbzynWvedY3nm-18" value="" style="endArrow=classic;startArrow=classic;html=1;rounded=0;exitX=1;exitY=0.5;exitDx=0;exitDy=0;entryX=0;entryY=1;entryDx=0;entryDy=0;" edge="1" parent="1" source="YatuWuwLbzynWvedY3nm-5" target="YatuWuwLbzynWvedY3nm-16">
          <mxGeometry width="50" height="50" relative="1" as="geometry">
            <mxPoint x="970" y="475" as="sourcePoint" />
            <mxPoint x="1020" y="425" as="targetPoint" />
          </mxGeometry>
        </mxCell>
        <mxCell id="YatuWuwLbzynWvedY3nm-19" value="" style="endArrow=classic;startArrow=classic;html=1;rounded=0;exitX=0;exitY=0.5;exitDx=0;exitDy=0;entryX=0.5;entryY=0;entryDx=0;entryDy=0;" edge="1" parent="1" source="YatuWuwLbzynWvedY3nm-10" target="YatuWuwLbzynWvedY3nm-16">
          <mxGeometry width="50" height="50" relative="1" as="geometry">
            <mxPoint x="455" y="615" as="sourcePoint" />
            <mxPoint x="920" y="415" as="targetPoint" />
          </mxGeometry>
        </mxCell>
        <mxCell id="YatuWuwLbzynWvedY3nm-22" value="&lt;font style=&quot;font-size: 24px;&quot;&gt;BACKEND&lt;br&gt;APP&lt;/font&gt;" style="text;html=1;strokeColor=none;fillColor=none;align=center;verticalAlign=middle;whiteSpace=wrap;rounded=0;" vertex="1" parent="1">
          <mxGeometry x="1690" y="185" width="140" height="60" as="geometry" />
        </mxCell>
        <mxCell id="YatuWuwLbzynWvedY3nm-23" value="&lt;font style=&quot;font-size: 16px;&quot;&gt;&lt;b&gt;DAO&lt;/b&gt;&lt;/font&gt;" style="rounded=1;whiteSpace=wrap;html=1;fillColor=default;" vertex="1" parent="1">
          <mxGeometry x="1720" y="545" width="125" height="70" as="geometry" />
        </mxCell>
        <mxCell id="YatuWuwLbzynWvedY3nm-24" value="" style="endArrow=classic;startArrow=classic;html=1;rounded=0;entryX=1;entryY=0.5;entryDx=0;entryDy=0;exitX=0;exitY=0.5;exitDx=0;exitDy=0;" edge="1" parent="1" source="YatuWuwLbzynWvedY3nm-13" target="YatuWuwLbzynWvedY3nm-12">
          <mxGeometry width="50" height="50" relative="1" as="geometry">
            <mxPoint x="1610" y="433" as="sourcePoint" />
            <mxPoint x="1235" y="258" as="targetPoint" />
          </mxGeometry>
        </mxCell>
        <mxCell id="YatuWuwLbzynWvedY3nm-26" value="" style="endArrow=classic;startArrow=classic;html=1;rounded=0;exitX=0.5;exitY=0;exitDx=0;exitDy=0;entryX=0.5;entryY=1;entryDx=0;entryDy=0;" edge="1" parent="1" source="YatuWuwLbzynWvedY3nm-23" target="YatuWuwLbzynWvedY3nm-13">
          <mxGeometry width="50" height="50" relative="1" as="geometry">
            <mxPoint x="455" y="615" as="sourcePoint" />
            <mxPoint x="920" y="415" as="targetPoint" />
          </mxGeometry>
        </mxCell>
        <mxCell id="YatuWuwLbzynWvedY3nm-28" value="" style="endArrow=classicThin;dashed=1;html=1;dashPattern=1 3;strokeWidth=2;rounded=0;entryX=1;entryY=0.5;entryDx=0;entryDy=0;exitX=0;exitY=0.5;exitDx=0;exitDy=0;endFill=1;startArrow=classicThin;startFill=1;" edge="1" parent="1" source="YatuWuwLbzynWvedY3nm-12" target="YatuWuwLbzynWvedY3nm-10">
          <mxGeometry width="50" height="50" relative="1" as="geometry">
            <mxPoint x="970" y="475" as="sourcePoint" />
            <mxPoint x="1020" y="425" as="targetPoint" />
          </mxGeometry>
        </mxCell>
        <mxCell id="YatuWuwLbzynWvedY3nm-29" value="" style="endArrow=classic;startArrow=classic;html=1;rounded=0;exitX=1;exitY=0.5;exitDx=0;exitDy=0;entryX=0;entryY=0.5;entryDx=0;entryDy=0;" edge="1" parent="1" source="YatuWuwLbzynWvedY3nm-5" target="YatuWuwLbzynWvedY3nm-12">
          <mxGeometry width="50" height="50" relative="1" as="geometry">
            <mxPoint x="970" y="475" as="sourcePoint" />
            <mxPoint x="1020" y="425" as="targetPoint" />
          </mxGeometry>
        </mxCell>
      </root>
    </mxGraphModel>
  </diagram>
</mxfile>
